<svg width="18" height="18" viewBox="0 0 18 18" fill="none" xmlns="http://www.w3.org/2000/svg">
<path d="M9.69661 3.22043L12.5464 4.8651C12.6488 4.92285 12.6525 5.08297 12.5464 5.14073L9.16013 7.09643C9.11186 7.12478 9.05689 7.13973 9.00091 7.13973C8.94493 7.13973 8.88996 7.12478 8.84168 7.09643L5.45551 5.14073C5.35126 5.08485 5.34939 4.92098 5.45551 4.8651L8.30341 3.22035V0L1.03186 4.19828V12.5947L3.82014 10.9855V7.6962C3.81826 7.57882 3.95611 7.49505 4.05863 7.55835L7.44473 9.51405C7.49328 9.5419 7.53365 9.58205 7.56177 9.63044C7.58989 9.67883 7.60478 9.73378 7.60493 9.78975V13.6993C7.60681 13.8166 7.46896 13.9004 7.36651 13.8371L4.51681 12.1924L1.72846 13.8017L9.00001 18L16.2716 13.8017L13.4832 12.1924L10.6335 13.8371C10.5329 13.8986 10.3913 13.8185 10.3951 13.6993V9.78975C10.3951 9.67238 10.4603 9.56805 10.5553 9.51405L13.9415 7.55835C14.042 7.49685 14.1836 7.57515 14.1799 7.6962V10.9855L16.9682 12.5947V4.19828L9.69661 0V3.22043Z" fill="#5B6866"/>
</svg>
