<svg width="18" height="18" viewBox="0 0 18 18" fill="none" xmlns="http://www.w3.org/2000/svg">
<path d="M1.44502 17.9352C0.741861 17.8021 0.166746 17.2268 0.0333888 16.5234C-0.206559 15.2576 0.882666 14.1684 2.14852 14.4083C2.85168 14.5417 3.42697 15.1168 3.56032 15.8199C3.80027 17.086 2.71105 18.1752 1.44502 17.9352ZM15.8513 3.56037C15.1481 3.42702 14.5729 2.8519 14.4395 2.14857C14.1996 0.882536 15.2891 -0.206681 16.555 0.0334312C17.2583 0.166969 17.8333 0.742084 17.9666 1.44524C18.2066 2.71109 17.1172 3.80031 15.8513 3.56037ZM9.01569 4.49207C9.87631 4.49207 10.68 4.73467 11.3633 5.15426L13.3024 3.21504C12.1055 2.32427 10.6222 1.79685 9.01569 1.79685C5.0461 1.79685 1.82809 5.01469 1.82809 8.98428C1.82809 10.591 2.35549 12.0743 3.24646 13.2711L5.18549 11.3321C4.7659 10.6488 4.52348 9.8449 4.52348 8.98428C4.52348 6.50328 6.5347 4.49207 9.01569 4.49207ZM12.8457 6.63659C13.2654 7.31988 13.5079 8.12359 13.5079 8.98422C13.5079 11.4652 11.4966 13.4764 9.01565 13.4764C8.15503 13.4764 7.35114 13.2342 6.66784 12.8144L4.72881 14.7535C5.92567 15.6444 7.40895 16.1718 9.01565 16.1718C12.9852 16.1718 16.2031 12.954 16.2031 8.98423C16.2031 7.37753 15.6755 5.89443 14.7849 4.69738L12.8457 6.63659Z" fill="#5B6A69"/>
</svg>
